<svg xmlns="http://www.w3.org/2000/svg"  viewBox="0 0 50 50" width="50px" height="50px"><path d="M 11.126953 7.5410156 C 10.716047 7.5479063 10.234594 7.5948281 9.6835938 7.7050781 C 7.4795937 8.1460781 6.5996094 8.9785156 6.5996094 8.9785156 L 6.5722656 9.8671875 C 6.3123924 9.9204338 5.7941834 10.020904 5.7832031 10.023438 C 5.5222031 10.081437 5.2953437 10.24275 5.1523438 10.46875 C 4.9423437 10.80275 0 18.789 0 30 C 0 32.639 0.13810938 35.158234 0.41210938 37.490234 C 0.71310937 40.047234 2.6868906 42.127828 5.2128906 42.548828 L 7.0742188 42.859375 C 7.1852187 42.878375 7.2942969 42.886719 7.4042969 42.886719 C 8.1902969 42.886719 8.9064063 42.425328 9.1914062 41.736328 L 13.060547 34.095703 C 13.401547 33.419703 14.08475 33 14.84375 33 L 35.15625 33 C 35.91425 33 36.598406 33.419703 36.941406 34.095703 L 40.779297 41.671875 C 41.134297 42.522875 42.022734 43.016375 42.927734 42.859375 L 44.787109 42.548828 C 47.312109 42.127828 49.286891 40.047234 49.587891 37.490234 C 49.860891 35.158234 50 32.639 50 30 C 50 18.789 45.057656 10.80275 44.847656 10.46875 C 44.704656 10.24275 44.477797 10.081437 44.216797 10.023438 C 44.205817 10.020904 43.687608 9.9204338 43.427734 9.8671875 L 43.400391 8.9785156 C 43.400391 8.9785156 42.520406 8.1460781 40.316406 7.7050781 C 38.112406 7.2640781 37.035156 7.8515625 37.035156 7.8515625 L 36.835938 8.8125 C 33.486736 8.3820771 29.350695 8 25 8 C 20.649305 8 16.513264 8.3820771 13.164062 8.8125 L 12.964844 7.8515625 C 12.964844 7.8515625 12.359672 7.5203437 11.126953 7.5410156 z M 38.5 13 C 39.328 13 40 13.672 40 14.5 C 40 15.328 39.328 16 38.5 16 C 37.672 16 37 15.328 37 14.5 C 37 13.672 37.672 13 38.5 13 z M 10.033203 14 L 10.964844 14 C 11.599844 14 12.083562 14.571266 11.976562 15.197266 L 11.849609 15.9375 C 11.810609 16.1655 11.697391 16.372344 11.525391 16.527344 L 10.785156 17.195312 C 10.622156 17.341313 10.374891 17.341313 10.212891 17.195312 L 9.4726562 16.527344 C 9.3006562 16.373344 9.1874375 16.1655 9.1484375 15.9375 L 9.0214844 15.197266 C 8.9154844 14.571266 9.3982031 14 10.033203 14 z M 35.5 16 C 36.328 16 37 16.672 37 17.5 C 37 18.328 36.328 19 35.5 19 C 34.672 19 34 18.328 34 17.5 C 34 16.672 34.672 16 35.5 16 z M 41.5 16 C 42.328 16 43 16.672 43 17.5 C 43 18.328 42.328 19 41.5 19 C 40.672 19 40 18.328 40 17.5 C 40 16.672 40.672 16 41.5 16 z M 7.4667969 16.509766 C 7.5423477 16.505559 7.6190156 16.510063 7.6972656 16.523438 L 8.4375 16.650391 C 8.6655 16.689391 8.8723437 16.802609 9.0273438 16.974609 L 9.6933594 17.714844 C 9.8393594 17.877844 9.8393594 18.125109 9.6933594 18.287109 L 9.0273438 19.027344 C 8.8723437 19.198344 8.6655 19.312563 8.4375 19.351562 L 7.6972656 19.476562 C 7.0712656 19.583562 6.5 19.101797 6.5 18.466797 L 6.5 17.535156 C 6.5 16.979531 6.9379414 16.539215 7.4667969 16.509766 z M 13.533203 16.509766 C 14.062059 16.539215 14.5 16.977578 14.5 17.533203 L 14.5 18.466797 C 14.5 19.101797 13.928734 19.583563 13.302734 19.476562 L 12.5625 19.351562 C 12.3345 19.312562 12.127656 19.197391 11.972656 19.025391 L 11.306641 18.285156 C 11.160641 18.122156 11.160641 17.876844 11.306641 17.714844 L 11.972656 16.974609 C 12.126656 16.802609 12.3345 16.687438 12.5625 16.648438 L 13.302734 16.523438 C 13.380984 16.510063 13.457652 16.505559 13.533203 16.509766 z M 10.501953 18.695312 C 10.604328 18.695312 10.706109 18.731687 10.787109 18.804688 L 11.527344 19.472656 C 11.699344 19.626656 11.812562 19.8345 11.851562 20.0625 L 11.978516 20.802734 C 12.084516 21.428734 11.601797 22 10.966797 22 L 10.035156 22 C 9.4001563 22 8.9164375 21.428734 9.0234375 20.802734 L 9.1503906 20.0625 C 9.1893906 19.8345 9.3026094 19.627656 9.4746094 19.472656 L 10.214844 18.804688 C 10.296344 18.731687 10.399578 18.695312 10.501953 18.695312 z M 38.5 19 C 39.328 19 40 19.672 40 20.5 C 40 21.328 39.328 22 38.5 22 C 37.672 22 37 21.328 37 20.5 C 37 19.672 37.672 19 38.5 19 z M 18 23 C 19.657 23 21 24.343 21 26 C 21 27.657 19.657 29 18 29 C 16.343 29 15 27.657 15 26 C 15 24.343 16.343 23 18 23 z M 32 23 C 33.657 23 35 24.343 35 26 C 35 27.657 33.657 29 32 29 C 30.343 29 29 27.657 29 26 C 29 24.343 30.343 23 32 23 z"/></svg>